<?xml version="1.0" encoding="UTF-8"?>
<svg width="64" height="64" viewBox="0 0 64 64" fill="none" xmlns="http://www.w3.org/2000/svg">
  <circle cx="32" cy="32" r="28" fill="#FFB74D"/>
  <path d="M32 12C25.4 12 20 17.4 20 24C20 30.6 25.4 36 32 36C38.6 36 44 30.6 44 24C44 17.4 38.6 12 32 12ZM32 32C27.6 32 24 28.4 24 24C24 19.6 27.6 16 32 16C36.4 16 40 19.6 40 24C40 28.4 36.4 32 32 32Z" fill="white"/>
  <path d="M32 36C25.4 36 20 41.4 20 48C20 54.6 25.4 60 32 60C38.6 60 44 54.6 44 48C44 41.4 38.6 36 32 36ZM32 56C27.6 56 24 52.4 24 48C24 43.6 27.6 40 32 40C36.4 40 40 43.6 40 48C40 52.4 36.4 56 32 56Z" fill="white"/>
</svg>
