<?xml version="1.0" encoding="UTF-8"?>
<svg width="128px" height="128px" viewBox="0 0 128 128" version="1.1" xmlns="http://www.w3.org/2000/svg">
    <title>助农Logo</title>
    <g stroke="none" stroke-width="1" fill="none" fill-rule="evenodd">
        <circle fill="#67C23A" cx="64" cy="64" r="64"/>
        <path d="M64,32 C81.673112,32 96,46.326888 96,64 C96,81.673112 81.673112,96 64,96 C46.326888,96 32,81.673112 32,64 C32,46.326888 46.326888,32 64,32 Z M64,40 C50.745166,40 40,50.745166 40,64 C40,77.254834 50.745166,88 64,88 C77.254834,88 88,77.254834 88,64 C88,50.745166 77.254834,40 64,40 Z" fill="#FFFFFF" fill-rule="nonzero"/>
        <path d="M64,48 C72.836556,48 80,55.163444 80,64 C80,72.836556 72.836556,80 64,80 C55.163444,80 48,72.836556 48,64 C48,55.163444 55.163444,48 64,48 Z" fill="#FFFFFF"/>
    </g>
</svg>
